<?xml version="1.0" encoding="UTF-8"?>
<svg id="New_logo" data-name="New logo" xmlns="http://www.w3.org/2000/svg" viewBox="0 0 263.8 373.48">
  <defs>
    <style>
      .cls-1 {
        fill: #0c0c0c;
      }
    </style>
  </defs>
  <path class="cls-1" d="M223.89,303.12c0,.08,0,.17,0,.25-.07,1.99-1.16,3.86-2.83,4.93-.99.64-2.15.97-3.32.97-.17,0-.34,0-.51-.02-.58.04-1.17.02-1.76-.08-1.08-.18-1.99-.33-2.55-.43-12.62-2.28-17.67-14.65-19.35-25.92-.3-2.01-.52-4.02-.7-6.03-1.66-18.33-3.21-36.95-11.49-53.7-2.9-5.86-6.47-11.68-10.81-16.59-4.09-4.63-9.9-7.6-15.53-9.91-1.89-.77-6.51-2.33-6.65-2.38.4,0,39.62-.14,40.79-54.84.25-12.06-2.61-25.18-9.14-35.54-5.61-8.92-14.46-15.5-23.63-20.4-9.38-5-19.49-8.48-29.65-11.49-1.29-.38-2.58-.76-3.87-1.14-14.07-4.15-28.15-8.29-42.23-12.42-13.86-4.06-27.72-8.12-41.6-12.13-4.09-1.18-8.17-2.46-12.3-3.49-.21-.05-.42-.1-.63-.15,0,0-.77-.2-1.51-.37-1.64-.41-3.38-.95-3.41-.95v-11.25l133.33,38.56c5.74,1.4,11.51,3.12,16.76,5.8,21.77,11.09,37.2,31.68,43.71,55.02,2.27,8.13,3.65,16.64,3.01,25.1-.24,3.14-.68,6.26-1.29,9.35-3.37,17.11-11.51,35.96-30.35,42.1.57-.18,7.66,5.31,11.49,9.56,12.19,13.55,15.73,50.24,16.88,67.97.33,5.14,3.49,9.61,6.34,13.69,1.24,1.77,2.75,3.64,2.78,5.92Z"/>
  <path class="cls-1" d="M242.59,332.16s-26.13,20.56-53.3,6.18c-6.05-3.2-11.22-5.76-11.22-5.76l-155.22-44.45-1.63-11.33s137.35,39.22,137.41,39.24c0,0-9.92-16.73-12.32-27.4-1.88-8.36-3.29-16.23-4.31-24.68-1.41-11.7-1.3-41.14-24.99-45.59v49.63s11.01,3.19,11.01,3.19l.64.18s.05.02.07.02c2.36.86,4.04,3.13,4.04,5.79,0,3.4-2.76,6.15-6.16,6.15-.53,0-1.04-.07-1.53-.2-.12-.02-.23-.06-.34-.1-11.72-3.4-25.65-7.42-25.65-7.43v-87.58c10.91,3.47,14,3.34,24.69,7.62,19.75,7.92,33.02,27.07,35.79,47.85.08.61.15,1.22.22,1.83.7,6.61.64,13.26.96,19.89.33,6.59,1.25,13.13,2.54,19.6,2.18,11.01,5.35,23.02,12.58,31.89,0,0,27.33,33.03,62.38,7.61l4.33,7.82Z"/>
  <path class="cls-1" d="M165.29,144.46c-.23,16.37-4.61,29.87-17.31,38.86-3.72,2.64-9.06,4.49-13.91,3.37-.44-.1-.61-.63-.32-.97,1.57-1.83,5.39-7.65,6.67-21.88,1.68-18.78.05-31.44-22.48-46.48-.4-.26-.93.02-.93.5v55.72c0,4.16-3.98,7.16-7.98,6.02l-9.51-2.72c-.26-.07-.43-.31-.43-.57l.28-83.64c0-.39.37-.67.74-.57,3.97,1.03,22.97,6.02,34.02,10.42,19.05,7.58,31.44,21.29,31.15,41.96Z"/>
  <path class="cls-1" d="M65.09,81.92v85.74s-25.96-7.94-25.96-7.94v-42.48c.17-4.62.1-11.31.04-14.78-.04-2.36-.32-4.72-.95-6.99-2.77-10.02-9.94-13.42-17.01-14.55v-11.71c.58,0,7.61,1.8,8.14,1.94l35.73,10.78Z"/>
  <path class="cls-1" d="M39.14,170.88c0,8.43,0,15.1,0,23.53,0,9.16,0,26.5,0,26.5-.39,12.82-11.58,19.03-17.92,19.36,0,0,0,9.81,0,12.8l43.87,12.81v-87.58l-25.96-7.41Z"/>
</svg>