<?xml version="1.0" encoding="UTF-8"?>
<svg id="New_logo" data-name="New logo" xmlns="http://www.w3.org/2000/svg" viewBox="0 0 795.81 211.82">
  <defs>
    <style>
      .cls-1 {
        fill: #fff;
      }
    </style>
  </defs>
  <g>
    <path class="cls-1" d="M290.88,167.29h-31.32l-39.7-56.18c-2.95.12-5.34.17-7.18.17-.75,0-1.55-.01-2.42-.04-.87-.02-1.76-.08-2.68-.13v35.42c0,7.38.8,11.97,2.42,13.75,2.19,2.54,5.48,3.8,9.86,3.8h4.59v3.2h-50.26v-3.2h4.42c4.96,0,8.51-1.61,10.64-4.84,1.21-1.78,1.81-6.02,1.81-12.71v-77.11c0-7.38-.8-11.97-2.42-13.75-2.25-2.54-5.59-3.8-10.03-3.8h-4.42v-3.2h42.73c12.46,0,21.64.91,27.55,2.72,5.92,1.82,10.93,5.17,15.05,10.03,4.13,4.88,6.18,10.69,6.18,17.44,0,7.2-2.35,13.46-7.04,18.77-4.7,5.31-11.98,9.06-21.84,11.24l24.22,33.65c5.53,7.73,10.29,14.2,14.26,16.73,3.99,2.54,9.17,4.16,15.57,4.84v3.2ZM207.58,105.67c1.09,0,2.05.01,2.85.04.8.02,1.47.04,1.99.04,11.19,0,19.62-2.42,25.3-7.27,5.67-4.84,8.52-11.02,8.52-18.51s-2.29-13.28-6.88-17.87c-4.59-4.59-10.65-6.88-18.21-6.88-3.34,0-7.87.55-13.58,1.65v48.78Z"/>
    <path class="cls-1" d="M330.77,55.06v46.36h25.77c6.7,0,11.17-1.01,13.41-3.02,3-2.66,4.67-7.33,5.03-14.02h3.19v40.83h-3.19c-.81-5.71-1.62-9.38-2.42-10.99-1.04-2.03-2.74-3.61-5.11-4.76-2.36-1.16-5.99-1.74-10.9-1.74h-25.77v38.67c0,5.19.24,8.35.7,9.47.46,1.13,1.26,2.01,2.42,2.68,1.15.66,3.34,1,6.57,1h19.9c6.62,0,11.45-.46,14.44-1.38,3-.92,5.88-2.74,8.65-5.46,3.58-3.57,7.24-8.96,10.99-16.17h3.46l-10.12,30.75h-90.39v-3.2h4.15c2.78,0,5.39-.65,7.88-1.98,1.84-.92,3.1-2.3,3.76-4.16.66-1.84,1-6.96,1-12.67v-76.2c0-7.44-.75-12.02-2.25-13.76-2.08-2.3-5.54-3.45-10.38-3.45h-4.15v-3.2h90.39l1.3,25.69h-3.38c-1.21-6.17-2.55-10.41-4.02-12.71-1.47-2.31-3.64-4.07-6.53-5.28-2.31-.87-6.38-1.3-12.2-1.3h-32.18Z"/>
    <path class="cls-1" d="M397.89,48.67h31.83l71.71,87.01v-67.64c0-7.21-.8-10.76-2.42-12.55-2.13-2.41-5.51-3.62-10.12-3.62h-4.07v-3.2h40.83v3.2h-4.16c-4.95,0-8.48,1.49-10.55,4.49-1.28,1.84-1.91,5.1-1.91,11.68v99.25h-3.11l-77.34-94.85v74.52c0,7.21.78,11.71,2.34,13.49,2.2,2.42,5.56,3.63,10.12,3.63h4.16v3.2h-40.83v-3.2h4.07c5.02,0,8.56-1.49,10.63-4.49,1.28-1.84,1.91-6.06,1.91-12.64v-75.81c0-5.92-2.87-11.47-7.68-14.92-.02-.01-.04-.03-.05-.04-1.77-1.26-4.34-2.45-7.75-3.55-1.67-.51-4.21-.77-7.61-.77v-3.2Z"/>
    <path class="cls-1" d="M595.17,128.03h-45.41l-7.95,18.51c-1.96,4.55-2.95,7.96-2.95,10.2,0,1.79.86,3.37,2.55,4.72,1.7,1.36,5.38,2.24,11.03,2.64v3.2h-36.93v-3.2c4.9-.86,8.07-1.98,9.52-3.37,2.94-2.78,6.19-8.39,9.77-16.87l41.26-96.53h3.02l40.83,97.57c3.28,7.83,6.27,12.92,8.95,15.26,2.68,2.34,6.42,3.65,11.2,3.93v3.2h-46.28v-3.2c4.67-.23,7.83-1.01,9.47-2.34,1.64-1.32,2.46-2.94,2.46-4.84,0-2.53-1.16-6.54-3.46-12.01l-7.09-16.87ZM592.74,121.63l-19.89-47.4-20.42,47.4h40.31Z"/>
    <path class="cls-1" d="M696.91,164.09v3.2h-50.25v-3.2h4.15c4.84,0,8.36-1.4,10.56-4.23,1.38-1.84,2.07-6.28,2.07-13.32v-75.77c0-5.94-.38-11.2-1.13-13.11-.57-1.44-1.76-2.68-3.54-3.72-2.54-1.38-5.2-2.07-7.96-2.07h-4.15v-3.2h50.25v3.2h-4.24c-4.78,0-8.27,1.4-10.46,4.23-1.45,1.84-2.16,7.63-2.16,14.66v75.77c0,5.94.38,9.86,1.13,11.77.58,1.44,1.79,2.68,3.63,3.72,2.48,1.38,5.1,2.07,7.87,2.07h4.24Z"/>
    <path class="cls-1" d="M775.92,45.99v40.56h-3.2c-1.04-7.78-2.89-13.99-5.58-18.59-2.68-4.62-6.49-8.27-11.46-10.99-4.96-2.71-10.1-4.07-15.4-4.07-5.99,0-10.95,1.83-14.88,5.5-3.92,3.67-5.88,7.82-5.88,12.5,0,3.58,1.24,6.84,3.72,9.77,3.58,4.33,12.09,10.1,25.52,17.3,10.96,5.88,18.44,10.4,22.45,13.54,4.01,3.15,7.08,6.85,9.25,11.11,2.16,4.28,3.25,8.75,3.25,13.41,0,8.88-3.45,16.54-10.34,22.97-6.89,6.43-15.75,9.65-26.59,9.65-3.41,0-6.6-.26-9.6-.77-1.79-.29-5.5-1.35-11.11-3.16-5.63-1.82-9.18-2.72-10.69-2.72s-2.58.43-3.42,1.3c-.84.87-1.46,2.65-1.85,5.36h-3.2v-40.22h3.2c1.49,8.42,3.52,14.73,6.06,18.91,2.53,4.18,6.41,7.65,11.63,10.42,5.22,2.78,10.94,4.16,17.17,4.16,7.21,0,12.9-1.91,17.08-5.71,4.18-3.8,6.27-8.31,6.27-13.49,0-2.88-.79-5.8-2.38-8.73-1.59-2.95-4.05-5.68-7.39-8.22-2.25-1.73-8.39-5.4-18.42-11.03-10.03-5.63-17.17-10.11-21.4-13.45-4.24-3.34-7.46-7.03-9.65-11.07-2.2-4.04-3.29-8.48-3.29-13.32,0-8.42,3.23-15.67,9.69-21.76,6.46-6.08,14.67-9.12,24.65-9.12,6.23,0,12.83,1.52,19.81,4.58,3.24,1.45,5.51,2.16,6.84,2.16,1.5,0,2.72-.44,3.68-1.34.95-.89,1.71-2.69,2.29-5.4h3.2Z"/>
  </g>
  <g>
    <path class="cls-1" d="M144.92,182.18c0,.05,0,.11,0,.16-.05,1.3-.76,2.53-1.85,3.23-.65.42-1.41.64-2.18.64-.11,0-.22,0-.33-.01-.38.03-.76.01-1.15-.05-.71-.12-1.31-.22-1.67-.28-8.27-1.5-11.58-9.6-12.68-16.99-.19-1.31-.34-2.63-.46-3.95-1.09-12.01-2.1-24.21-7.53-35.19-1.9-3.84-4.24-7.66-7.09-10.87-2.68-3.03-6.49-4.98-10.18-6.49-1.24-.51-4.26-1.53-4.36-1.56.26,0,25.96-.09,26.73-35.94.17-7.9-1.71-16.5-5.99-23.29-3.67-5.85-9.47-10.16-15.48-13.37-6.14-3.28-12.77-5.56-19.43-7.53-.85-.25-1.69-.5-2.54-.75-9.22-2.72-18.45-5.43-27.68-8.14-9.08-2.66-18.16-5.32-27.26-7.95-2.68-.78-5.35-1.61-8.06-2.29-.14-.03-.28-.07-.41-.1,0,0-.51-.13-.99-.24-1.08-.27-2.21-.62-2.24-.62V3.22l87.37,25.27c3.76.92,7.54,2.05,10.98,3.8,14.26,7.27,24.37,20.76,28.65,36.06,1.48,5.33,2.39,10.9,1.97,16.45-.16,2.06-.45,4.11-.85,6.13-2.21,11.21-7.54,23.56-19.89,27.59.38-.12,5.02,3.48,7.53,6.26,7.99,8.88,10.31,32.92,11.06,44.54.22,3.37,2.29,6.3,4.16,8.97.81,1.16,1.8,2.39,1.82,3.88Z"/>
    <path class="cls-1" d="M157.18,201.21s-17.12,13.47-34.93,4.05c-3.97-2.1-7.35-3.78-7.35-3.78l-101.72-29.13-1.07-7.42s90.01,25.7,90.04,25.72c0,0-6.5-10.97-8.07-17.96-1.23-5.48-2.16-10.64-2.83-16.17-.93-7.67-.85-26.96-16.38-29.87v32.52s7.21,2.09,7.21,2.09l.42.12s.03.01.05.02c1.55.57,2.65,2.05,2.65,3.79,0,2.23-1.81,4.03-4.04,4.03-.34,0-.68-.04-1-.13-.08-.02-.15-.04-.22-.07-7.68-2.22-16.81-4.86-16.81-4.87v-57.39c7.15,2.28,9.18,2.19,16.18,5,12.94,5.19,21.64,17.74,23.46,31.36.05.4.1.8.14,1.2.46,4.33.42,8.69.63,13.04.22,4.32.82,8.61,1.67,12.85,1.43,7.21,3.5,15.08,8.24,20.9,0,0,17.91,21.65,40.88,4.98l2.84,5.12Z"/>
    <path class="cls-1" d="M106.52,78.2c-.15,10.73-3.02,19.57-11.34,25.46-2.44,1.73-5.94,2.94-9.12,2.21-.29-.07-.4-.41-.21-.64,1.03-1.2,3.53-5.01,4.37-14.34,1.1-12.31.03-20.6-14.73-30.46-.26-.17-.61.01-.61.32v36.51c0,2.72,-2.61,4.69-5.23,3.94l-6.23-1.78c-.17-.05-.28-.2-.28-.38l.19-54.81c0-.25.24-.44.49-.38,2.6.67,15.05,3.95,22.3,6.83,12.49,4.97,20.6,13.95,20.41,27.5Z"/>
    <path class="cls-1" d="M40.86,37.22v56.18s-17.01-5.21-17.01-5.21v-27.84c.11-3.03.06-7.41.03-9.68-.02-1.55-.21-3.09-.62-4.58-1.82-6.56-6.51-8.8-11.15-9.53v-7.68c.38,0,4.99,1.18,5.34,1.27l23.41,7.06Z"/>
    <path class="cls-1" d="M23.85,95.52c0,5.52,0,9.89,0,15.42,0,6,0,17.37,0,17.37-.25,8.4-7.59,12.47-11.74,12.68,0,0,0,6.43,0,8.39l28.75,8.39v-57.39l-17.01-4.86Z"/>
  </g>
</svg>